<svg xmlns="http://www.w3.org/2000/svg" version="1.1" xmlns:xlink="http://www.w3.org/1999/xlink" xmlns:svgjs="http://svgjs.dev/svgjs" width="2000" height="1500" viewBox="0 0 2000 1500"><rect width="2000" height="1500" fill="#ffffff"></rect><g transform="matrix(0.75,0,0,0.75,249.090909090909,607.0970648352536)"><svg viewBox="0 0 396 75" data-background-color="#ffffff" preserveAspectRatio="xMidYMid meet" height="378" width="2000" xmlns="http://www.w3.org/2000/svg" xmlns:xlink="http://www.w3.org/1999/xlink"><g id="tight-bounds" transform="matrix(1,0,0,1,0.2400000000000091,0.30500930284296146)"><svg viewBox="0 0 395.52 74.38998139431406" height="74.38998139431406" width="395.52"><g><svg viewBox="0 0 500.182556945119 94.07506852980339" height="74.38998139431406" width="395.52"><g><svg viewBox="0 0 500.182556945119 94.07506852980339" height="94.07506852980339" width="500.182556945119"><g id="textblocktransform"><svg viewBox="0 0 500.182556945119 94.07506852980339" height="94.07506852980339" width="500.182556945119" id="textblock"><g><svg viewBox="0 0 500.182556945119 63.910999999999994" height="63.910999999999994" width="500.182556945119"><g><svg><g></g><g></g></svg></g><g><svg><g></g><g><svg></svg></g></svg></g><g id="text-0"><svg viewBox="0 0 500.182556945119 63.910999999999994" height="63.910999999999994" width="500.182556945119"><g transform="matrix(1,0,0,1,0,12.205499999999997)"><svg width="292.1" viewBox="1.55 -39 292.08 39.5" height="39.5" data-palette-color="#ffd700"><path d="M1.55-25.5L1.55-36 31.35-36 31.35-25.5 28.75-25.5 27.15-33 18.95-33 18.95-3.35 24.25-2.15 24.25 0 8.65 0 8.65-2.15 13.95-3.35 13.95-33 5.7-33 4.15-25.5 1.55-25.5ZM51.7-2.05L55.05-3 55.05-14.15Q55.05-17.4 54.87-19 54.7-20.6 54.25-21.5L54.25-21.5Q53.05-23.95 49.85-23.95L49.85-23.95Q48.45-23.95 47.15-23.45 45.85-22.95 44.85-22.1L44.85-22.1Q43.75-21.15 43.22-19.83 42.7-18.5 42.6-16.55L42.6-16.55 42.6-3 45.95-2.05 45.95 0 33.9 0 33.9-2.05 37.75-3 37.75-36 33.9-36.95 33.9-39 42.6-39 42.6-22.3Q44.1-24.7 46.57-26.1 49.05-27.5 51.9-27.5L51.9-27.5Q53.9-27.5 55.5-26.8 57.1-26.1 58.05-24.8L58.05-24.8Q59.05-23.4 59.47-20.88 59.9-18.35 59.9-14.05L59.9-14.05 59.9-3 63.75-2.05 63.75 0 51.7 0 51.7-2.05ZM89.69-13.2L89.69-13.2 72.25-13.2Q72.25-9.55 73.25-7.15L73.25-7.15Q74.25-4.85 76.09-3.85 77.94-2.85 80.09-2.85L80.09-2.85Q82.44-2.85 84.39-3.83 86.34-4.8 87.89-6.5L87.89-6.5 89.5-5.3Q87.75-2.9 85.25-1.2 82.75 0.5 78.8 0.5L78.8 0.5Q75.34 0.5 72.69-0.98 70.05-2.45 68.64-5.3L68.64-5.3Q67.89-6.85 67.55-8.75 67.19-10.65 67.19-12.8L67.19-12.8Q67.19-19.8 70.42-23.65 73.64-27.5 79.19-27.5L79.19-27.5Q84.3-27.5 87.07-24.33 89.84-21.15 89.84-15.55L89.84-15.55Q89.84-15.05 89.82-14.63 89.8-14.2 89.69-13.2ZM78.89-24.8L78.89-24.8Q72.89-24.8 72.3-15.65L72.3-15.65 84.8-15.65 84.8-17.3Q84.8-20.9 83.27-22.85 81.75-24.8 78.89-24.8ZM142.49-33.85L138.29-32.8 138.29-3.2 142.49-2.15 142.49 0 129.09 0 129.09-2.15 133.29-3.2 133.29-17.05 116.34-17.05 116.34-3.2 120.54-2.15 120.54 0 107.14 0 107.14-2.15 111.34-3.2 111.34-32.8 107.14-33.85 107.14-36 120.54-36 120.54-33.85 116.34-32.8 116.34-19.95 133.29-19.95 133.29-32.8 129.09-33.85 129.09-36 142.49-36 142.49-33.85ZM168.69-13.2L168.69-13.2 151.24-13.2Q151.24-9.55 152.24-7.15L152.24-7.15Q153.24-4.85 155.09-3.85 156.94-2.85 159.09-2.85L159.09-2.85Q161.44-2.85 163.39-3.83 165.34-4.8 166.89-6.5L166.89-6.5 168.49-5.3Q166.74-2.9 164.24-1.2 161.74 0.5 157.79 0.5L157.79 0.5Q154.34 0.5 151.69-0.98 149.04-2.45 147.64-5.3L147.64-5.3Q146.89-6.85 146.54-8.75 146.19-10.65 146.19-12.8L146.19-12.8Q146.19-19.8 149.41-23.65 152.64-27.5 158.19-27.5L158.19-27.5Q163.29-27.5 166.06-24.33 168.84-21.15 168.84-15.55L168.84-15.55Q168.84-15.05 168.81-14.63 168.79-14.2 168.69-13.2ZM157.89-24.8L157.89-24.8Q151.89-24.8 151.29-15.65L151.29-15.65 163.79-15.65 163.79-17.3Q163.79-20.9 162.26-22.85 160.74-24.8 157.89-24.8ZM198.79-13.75L198.79-13.75Q198.79-10.5 197.84-7.6 196.89-4.7 195.19-2.75L195.19-2.75Q192.39 0.5 187.14 0.5L187.14 0.5Q184.59 0.5 182.59-0.68 180.59-1.85 179.04-5.05L179.04-5.05 177.54 0 175.19 0 175.19-36 171.34-36.95 171.34-39 180.04-39 180.04-24.1Q181.54-26 183.39-26.75 185.24-27.5 187.54-27.5L187.54-27.5Q190.09-27.5 192.16-26.75 194.24-26 195.54-24.35L195.54-24.35Q197.09-22.45 197.94-19.7 198.79-16.95 198.79-13.75ZM180.04-13.7L180.04-13.7Q180.04-10.65 180.49-8.4 180.94-6.15 181.79-4.75L181.79-4.75Q182.59-3.5 183.76-2.8 184.94-2.1 186.79-2.1L186.79-2.1Q188.49-2.1 189.76-2.73 191.04-3.35 191.84-4.45L191.84-4.45Q192.74-5.75 193.14-8.05 193.54-10.35 193.54-13.35L193.54-13.35Q193.54-16.35 193.09-18.6 192.64-20.85 191.79-22.25L191.79-22.25Q190.99-23.55 189.81-24.23 188.64-24.9 186.74-24.9L186.74-24.9Q185.04-24.9 183.76-24.33 182.49-23.75 181.79-22.6L181.79-22.6Q180.99-21.2 180.51-18.98 180.04-16.75 180.04-13.7ZM217.93-24.1L217.93-24.1Q217.73-24.25 217.46-24.33 217.18-24.4 216.93-24.4L216.93-24.4Q216.33-24.4 215.63-23.85 214.93-23.3 214.28-22.38 213.63-21.45 213.08-20.25L213.08-20.25Q212.38-18.55 211.98-16.53 211.58-14.5 211.58-12.35L211.58-12.35 211.58-3 216.98-2.05 216.98 0 202.88 0 202.88-2.05 206.73-3 206.73-24 202.88-24.95 202.88-27 210.08-27 211.18-20.4 211.38-20.4Q212.53-23.8 214.48-25.65 216.43-27.5 218.78-27.5L218.78-27.5Q220.73-27.5 222.03-26.28 223.33-25.05 223.33-23L223.33-23Q223.33-21.5 222.56-20.63 221.78-19.75 220.48-19.75L220.48-19.75Q219.18-19.75 218.43-20.58 217.68-21.4 217.68-22.75L217.68-22.75Q217.68-23.05 217.73-23.33 217.78-23.6 217.93-24.1ZM248.58-13.2L248.58-13.2 231.13-13.2Q231.13-9.55 232.13-7.15L232.13-7.15Q233.13-4.85 234.98-3.85 236.83-2.85 238.98-2.85L238.98-2.85Q241.33-2.85 243.28-3.83 245.23-4.8 246.78-6.5L246.78-6.5 248.38-5.3Q246.63-2.9 244.13-1.2 241.63 0.5 237.68 0.5L237.68 0.5Q234.23 0.5 231.58-0.98 228.93-2.45 227.53-5.3L227.53-5.3Q226.78-6.85 226.43-8.75 226.08-10.65 226.08-12.8L226.08-12.8Q226.08-19.8 229.31-23.65 232.53-27.5 238.08-27.5L238.08-27.5Q243.18-27.5 245.96-24.33 248.73-21.15 248.73-15.55L248.73-15.55Q248.73-15.05 248.71-14.63 248.68-14.2 248.58-13.2ZM237.78-24.8L237.78-24.8Q231.78-24.8 231.18-15.65L231.18-15.65 243.68-15.65 243.68-17.3Q243.68-20.9 242.16-22.85 240.63-24.8 237.78-24.8ZM262.33-24.95L258.88-24 264.03-6 264.63-3.05 264.88-3.05 265.48-6 271.33-27.5 274.93-27.5 280.98-6 281.58-3.05 281.78-3.05 282.38-6 287.38-24 284.13-24.95 284.13-27 293.63-27 293.63-24.95 290.93-24 283.48 0.5 278.33 0.5 272.38-19 266.58 0.5 261.43 0.5 253.78-24 251.13-24.95 251.13-27 262.33-27 262.33-24.95Z" opacity="1" transform="matrix(1,0,0,1,0,0)" fill="#ffd700" class="undefined-tk-0" data-fill-palette-color="primary"></path></svg></g><g><svg xmlns="http://www.w3.org/2000/svg" xmlns:xlink="http://www.w3.org/1999/xlink" version="1.1" x="307.189" y="0" viewBox="4.45 9.55 92.21 82.36" enable-background="new 0 0 100 100" xml:space="preserve" height="63.910999999999994" width="71.55455694511899" class="icon-dxe-0" data-fill-palette-color="accent" id="dxe-0"><polygon points="88.38,33.89 84.05,26.39 75.78,12.052 72.891,17.05 79.721,28.89 66.05,28.89 63.16,33.89 79.721,33.89   71.45,48.23 77.221,48.23 84.05,36.39 90.891,48.23 96.66,48.23 " fill="#ffffff" data-fill-palette-color="accent"></polygon><polygon points="71.45,9.55 54.891,9.55 46.23,9.55 29.67,9.55 32.56,14.55 46.23,14.55 39.39,26.39 42.28,31.39 50.561,17.05   58.83,31.389 61.719,26.39 61.72,26.389 54.891,14.55 68.559,14.55 " fill="#ffffff" data-fill-palette-color="accent"></polygon><polygon points="37.95,33.89 35.06,28.89 21.39,28.89 28.23,17.05 25.34,12.05 17.06,26.39 12.73,33.89 4.45,48.23 10.23,48.23   17.06,36.39 23.9,48.23 29.67,48.23 21.39,33.89 " fill="#ffffff" data-fill-palette-color="accent"></polygon><polygon points="37.95,67.57 21.39,67.57 29.67,53.23 23.9,53.23 17.06,65.07 10.23,53.23 4.46,53.23 12.73,67.57 17.06,75.07   25.34,89.41 28.23,84.41 21.39,72.57 35.06,72.57 " fill="#ffffff" data-fill-palette-color="accent"></polygon><polygon points="68.561,86.91 54.891,86.91 61.721,75.07 58.83,70.07 50.561,84.41 42.28,70.07 39.39,75.07 46.23,86.91   32.56,86.91 29.67,91.91 46.23,91.91 54.891,91.91 71.451,91.91 " fill="#ffffff" data-fill-palette-color="accent"></polygon><polygon points="90.891,53.23 84.05,65.07 77.221,53.23 71.45,53.23 79.721,67.57 63.16,67.57 66.05,72.57 79.721,72.57   72.891,84.41 75.781,89.41 84.051,75.07 84.051,75.069 88.38,67.57 96.66,53.23 " fill="#ffffff" data-fill-palette-color="accent"></polygon></svg></g><g transform="matrix(1,0,0,1,393.832556945119,12.205499999999997)"><svg width="106.35" viewBox="2.65 -39 106.33999999999999 39.5" height="39.5" data-palette-color="#ffd700"><path d="M18.55-33.8L18.55-33.8Q16.1-33.8 14.38-33.05 12.65-32.3 11.45-30.7L11.45-30.7Q9.95-28.75 9.1-25.58 8.25-22.4 8.25-18.6L8.25-18.6Q8.25-15.05 9-11.95 9.75-8.85 11.1-6.75L11.1-6.75Q12.45-4.65 14.38-3.68 16.3-2.7 19.2-2.7L19.2-2.7Q28.2-2.7 29.65-11.15L29.65-11.15 32.4-11.15Q30.15 0.5 18.7 0.5L18.7 0.5Q11.8 0.5 7.7-3.5L7.7-3.5Q5.25-5.9 3.95-9.55 2.65-13.2 2.65-17.65L2.65-17.65Q2.65-22.7 4.3-26.8 5.95-30.9 8.95-33.35L8.95-33.35Q12.75-36.5 19-36.5L19-36.5Q22.1-36.5 24.05-35.7 26-34.9 27.9-32.85L27.9-32.85 28.9-36 31.65-36 31.65-24.95 28.6-24.95Q27.9-29.35 25.38-31.58 22.85-33.8 18.55-33.8ZM35.6-2.05L39.45-3 39.45-36 35.6-36.95 35.6-39 44.3-39 44.3-3 48.15-2.05 48.15 0 35.6 0 35.6-2.05ZM51.05-27L59.25-27 59.25-12.85Q59.25-9.65 59.42-8.03 59.6-6.4 60.05-5.5L60.05-5.5Q60.6-4.3 61.7-3.68 62.8-3.05 64.25-3.05L64.25-3.05Q65.59-3.05 66.84-3.55 68.09-4.05 69.05-4.9L69.05-4.9Q71.09-6.75 71.3-10.65L71.3-10.65 71.3-24 66.95-24.95 66.95-27 76.15-27 76.15-3 80-2.05 80 0 72.25 0.5 71.7-5 71.5-5Q70.05-2.45 67.55-0.98 65.05 0.5 62.2 0.5L62.2 0.5Q60.3 0.5 58.72-0.23 57.15-0.95 56.25-2.2L56.25-2.2Q55.3-3.6 54.85-6.15 54.4-8.7 54.4-12.95L54.4-12.95 54.4-24 51.05-24.95 51.05-27ZM108.99-13.75L108.99-13.75Q108.99-10.5 108.04-7.6 107.09-4.7 105.39-2.75L105.39-2.75Q102.59 0.5 97.34 0.5L97.34 0.5Q94.79 0.5 92.79-0.68 90.79-1.85 89.24-5.05L89.24-5.05 87.74 0 85.39 0 85.39-36 81.54-36.95 81.54-39 90.24-39 90.24-24.1Q91.74-26 93.59-26.75 95.44-27.5 97.74-27.5L97.74-27.5Q100.29-27.5 102.37-26.75 104.44-26 105.74-24.35L105.74-24.35Q107.29-22.45 108.14-19.7 108.99-16.95 108.99-13.75ZM90.24-13.7L90.24-13.7Q90.24-10.65 90.69-8.4 91.14-6.15 91.99-4.75L91.99-4.75Q92.79-3.5 93.97-2.8 95.14-2.1 96.99-2.1L96.99-2.1Q98.69-2.1 99.97-2.73 101.24-3.35 102.04-4.45L102.04-4.45Q102.94-5.75 103.34-8.05 103.74-10.35 103.74-13.35L103.74-13.35Q103.74-16.35 103.29-18.6 102.84-20.85 101.99-22.25L101.99-22.25Q101.19-23.55 100.02-24.23 98.84-24.9 96.94-24.9L96.94-24.9Q95.24-24.9 93.97-24.33 92.69-23.75 91.99-22.6L91.99-22.6Q91.19-21.2 90.72-18.98 90.24-16.75 90.24-13.7Z" opacity="1" transform="matrix(1,0,0,1,0,0)" fill="#ffd700" class="undefined-tk-1" data-fill-palette-color="secondary"></path></svg></g></svg></g></svg></g><g transform="matrix(1,0,0,1,95.53486837651775,73.236002)"><svg viewBox="0 0 309.1128201920835 20.839066529803386" height="20.839066529803386" width="309.1128201920835"><g transform="matrix(1,0,0,1,0,0)"><svg width="309.1128201920835" viewBox="2.93 -31.74 608.32 41.019999999999996" height="20.839066529803386" data-palette-color="#ffd700"><path d="M23.73-7.67L23.73-7.67Q23.73-12.01 19.04-14.65L19.04-14.65Q18.12-15.14 13.33-17.24L13.33-17.24Q8.98-19.09 7.86-21.04L7.86-21.04Q7.28-22.12 7.28-23.34L7.28-23.34Q7.28-26.61 10.45-27.88L10.45-27.88Q11.82-28.42 13.48-28.42L13.48-28.42Q17.58-28.42 19.73-25.63L19.73-25.63Q21.14-23.73 21.09-21L21.09-21 22.56-21 22.56-29.54Q21.39-29.54 21.19-28.81L21.19-28.81Q21.09-28.47 21.09-27.88L21.09-27.88Q17.63-29.79 13.28-29.79L13.28-29.79Q8.01-29.79 5.08-26.86L5.08-26.86Q3.13-24.8 3.13-22.07L3.13-22.07Q3.13-17.97 7.71-15.38L7.71-15.38Q8.54-14.94 13.28-12.89L13.28-12.89Q17.68-10.94 18.85-8.94L18.85-8.94Q19.48-7.81 19.48-6.49L19.48-6.49Q19.48-3.08 16.16-1.56L16.16-1.56Q14.6-0.88 12.7-0.88L12.7-0.88Q5.22-0.98 4.39-10.01L4.39-10.01 2.93-10.01 2.93 0.1Q4.1 0.1 4.3-0.59L4.3-0.59Q4.39-0.98 4.39-2L4.39-2Q8.15 0.49 12.94 0.49L12.94 0.49Q18.55 0.49 21.63-2.54L21.63-2.54Q23.73-4.69 23.73-7.67ZM38.18 8.06L34.76 8.06 34.76-2.05Q37.45 0.29 40.96 0.49L40.96 0.49Q45.31 0.49 48.24-2.78L48.24-2.78Q51.07-5.96 51.07-10.84L51.07-10.84Q51.07-16.41 48-19.29L48-19.29Q45.85-21.24 42.77-21.24L42.77-21.24Q38.03-21.24 35.69-17.48L35.69-17.48Q35.1-16.5 34.71-15.43L34.71-15.43 34.47-20.75 27.44-20.75 27.44-19.53 31.1-19.53 31.1 5.13Q31.1 7.37 29.83 7.81L29.83 7.81Q29.1 8.06 27.44 8.06L27.44 8.06 27.44 9.28 39.4 9.28Q39.4 8.2 38.67 8.11L38.67 8.11Q38.47 8.06 38.18 8.06L38.18 8.06ZM41.21-19.29L41.21-19.29Q45.46-19.29 46.58-13.96L46.58-13.96Q46.92-12.35 46.92-10.35L46.92-10.35Q46.92-3.17 43.06-1.27L43.06-1.27Q41.94-0.73 40.62-0.73L40.62-0.73Q36.86-0.73 35.45-4.69L35.45-4.69Q34.71-6.69 34.71-9.42L34.71-9.42Q34.71-15.77 37.99-18.21L37.99-18.21Q39.45-19.29 41.21-19.29ZM65.18-20.02L65.18-20.02Q68.6-20.02 69.72-17.14L69.72-17.14Q70.11-16.21 70.11-15.14L70.11-15.14Q70.11-12.7 67.77-12.16L67.77-12.16Q66.55-11.91 64.3-11.96L64.3-11.96 59.13-12.11Q59.37-17.72 62.79-19.43L62.79-19.43Q63.91-20.02 65.18-20.02ZM73.68-4.69L73.68-4.69 72.46-5.13Q70.75-1.42 66.94-0.93L66.94-0.93Q66.45-0.88 66.01-0.88L66.01-0.88Q60.88-0.88 59.57-6.98L59.57-6.98Q59.17-8.69 59.13-10.74L59.13-10.74 64.99-10.64Q70.94-10.55 72.65-11.77L72.65-11.77Q73.97-12.74 73.97-14.55L73.97-14.55Q73.97-17.87 70.6-19.82L70.6-19.82Q68.21-21.24 65.08-21.24L65.08-21.24Q58.98-21.24 56.34-16.16L56.34-16.16Q54.98-13.53 54.98-10.21L54.98-10.21Q54.98-4.15 59.32-1.22L59.32-1.22Q61.91 0.49 65.23 0.49L65.23 0.49Q70.5 0.49 72.99-3.32L72.99-3.32Q73.38-4 73.68-4.69ZM94.77 0.49L94.77 0.49Q98.53 0.49 98.92-4.05L98.92-4.05Q98.97-4.35 98.97-4.59L98.97-4.59 97.7-4.64Q97.36-1.07 95.79-1.03L95.79-1.03Q94.52-1.12 94.47-3.56L94.47-3.56 94.47-13.87Q94.47-20.85 87.49-21.24L87.49-21.24Q87.05-21.24 86.61-21.24L86.61-21.24Q81.14-21.24 79.29-18.7L79.29-18.7Q78.7-17.87 78.7-17.04L78.7-17.04Q78.7-15.53 80.12-15.28L80.12-15.28Q80.36-15.23 80.61-15.23L80.61-15.23Q81.73-15.23 82.27-16.65L82.27-16.65Q82.95-18.46 83.2-18.8L83.2-18.8Q84.12-20.02 86.08-20.02L86.08-20.02Q90.67-19.73 90.81-14.99L90.81-14.99 90.81-11.91Q79.34-11.91 77.68-7.13L77.68-7.13Q77.39-6.2 77.39-5.13L77.39-5.13Q77.39-1.42 80.66-0.05L80.66-0.05Q81.97 0.49 83.44 0.49L83.44 0.49Q87 0.49 89.45-1.95L89.45-1.95Q90.32-2.88 90.76-3.91L90.76-3.91Q91.35 0.44 94.77 0.49ZM85.05-1.46L85.05-1.46Q82.07-1.46 81.39-4.44L81.39-4.44Q81.24-5.13 81.24-5.96L81.24-5.96Q81.24-9.23 85-10.11L85-10.11Q87-10.55 90.81-10.6L90.81-10.6 90.81-6.69Q90.08-3.32 87.25-1.95L87.25-1.95Q86.13-1.46 85.05-1.46ZM110.24-1.22L110.24-1.22 108.05-1.22 108.05-8.45 110.73-10.94 117.62 0 124.11 0Q124.11-1.07 123.38-1.17L123.38-1.17Q123.18-1.22 122.89-1.22L122.89-1.22 121.13-1.22 113.27-13.33 117.86-17.63Q119.57-19.24 120.45-19.43L120.45-19.43Q120.84-19.53 121.33-19.53L121.33-19.53Q122.4-19.53 122.5-20.26L122.5-20.26Q122.55-20.51 122.55-20.75L122.55-20.75 114.25-20.75 114.25-19.53 117.91-19.53 108.05-10.4 108.05-31.74 100.72-31.74 100.72-30.52 104.38-30.52 104.38-4.15Q104.38-1.9 103.12-1.46L103.12-1.46Q102.38-1.22 100.72-1.22L100.72-1.22 100.72 0 111.46 0Q111.46-1.07 110.73-1.17L110.73-1.17Q110.54-1.22 110.24-1.22ZM134.12-20.75L134.12-19.53 137.53-19.53 137.53-5.76Q137.88 0.34 143.15 0.54L143.15 0.54Q147.64 0.54 148.76-4.98L148.76-4.98Q148.76-5.03 148.76-5.08L148.76-5.08 147.45-5.32Q146.23-1.27 143.88-0.93L143.88-0.93Q141.24-1.03 141.2-4.69L141.2-4.69 141.2-19.53 148.76-19.53 148.76-20.75 141.2-20.75 141.2-26.42 137.53-25.39 137.53-20.75 134.12-20.75ZM155.11-10.4L155.11-10.4Q155.11-17.97 159.26-19.63L159.26-19.63Q160.33-20.02 161.51-20.02L161.51-20.02Q166.93-20.02 167.8-13.18L167.8-13.18Q167.95-12.01 167.95-10.6L167.95-10.6Q167.95-2.39 163.46-0.98L163.46-0.98Q162.58-0.73 161.65-0.73L161.65-0.73Q156.72-0.73 155.45-6.59L155.45-6.59Q155.11-8.3 155.11-10.4ZM161.65-21.24L161.65-21.24Q156.96-21.24 153.84-18.02L153.84-18.02Q150.96-15.04 150.96-10.6L150.96-10.6Q150.96-4.44 155.45-1.37L155.45-1.37Q158.19 0.49 161.51 0.49L161.51 0.49Q166.19 0.49 169.27-2.83L169.27-2.83Q172.1-5.86 172.1-10.4L172.1-10.4Q172.1-16.55 167.56-19.53L167.56-19.53Q164.88-21.24 161.65-21.24ZM195.14-1.22L195.14-1.22 192.51-1.22 192.51-31.74 185.18-31.74 185.18-30.52 188.84-30.52 188.84-4.15Q188.84-1.9 187.58-1.46L187.58-1.46Q186.84-1.22 185.18-1.22L185.18-1.22 185.18 0 196.36 0Q196.36-1.07 195.63-1.17L195.63-1.17Q195.44-1.22 195.14-1.22ZM209.84-20.02L209.84-20.02Q213.26-20.02 214.38-17.14L214.38-17.14Q214.77-16.21 214.77-15.14L214.77-15.14Q214.77-12.7 212.43-12.16L212.43-12.16Q211.21-11.91 208.96-11.96L208.96-11.96 203.78-12.11Q204.03-17.72 207.45-19.43L207.45-19.43Q208.57-20.02 209.84-20.02ZM218.33-4.69L218.33-4.69 217.11-5.13Q215.4-1.42 211.6-0.93L211.6-0.93Q211.11-0.88 210.67-0.88L210.67-0.88Q205.54-0.88 204.22-6.98L204.22-6.98Q203.83-8.69 203.78-10.74L203.78-10.74 209.64-10.64Q215.6-10.55 217.31-11.77L217.31-11.77Q218.63-12.74 218.63-14.55L218.63-14.55Q218.63-17.87 215.26-19.82L215.26-19.82Q212.87-21.24 209.74-21.24L209.74-21.24Q203.64-21.24 201-16.16L201-16.16Q199.63-13.53 199.63-10.21L199.63-10.21Q199.63-4.15 203.98-1.22L203.98-1.22Q206.57 0.49 209.89 0.49L209.89 0.49Q215.16 0.49 217.65-3.32L217.65-3.32Q218.04-4 218.33-4.69ZM239.43 0.49L239.43 0.49Q243.19 0.49 243.58-4.05L243.58-4.05Q243.62-4.35 243.62-4.59L243.62-4.59 242.36-4.64Q242.01-1.07 240.45-1.03L240.45-1.03Q239.18-1.12 239.13-3.56L239.13-3.56 239.13-13.87Q239.13-20.85 232.15-21.24L232.15-21.24Q231.71-21.24 231.27-21.24L231.27-21.24Q225.8-21.24 223.95-18.7L223.95-18.7Q223.36-17.87 223.36-17.04L223.36-17.04Q223.36-15.53 224.78-15.28L224.78-15.28Q225.02-15.23 225.27-15.23L225.27-15.23Q226.39-15.23 226.93-16.65L226.93-16.65Q227.61-18.46 227.85-18.8L227.85-18.8Q228.78-20.02 230.73-20.02L230.73-20.02Q235.32-19.73 235.47-14.99L235.47-14.99 235.47-11.91Q224-11.91 222.34-7.13L222.34-7.13Q222.04-6.2 222.04-5.13L222.04-5.13Q222.04-1.42 225.31-0.05L225.31-0.05Q226.63 0.49 228.1 0.49L228.1 0.49Q231.66 0.49 234.1-1.95L234.1-1.95Q234.98-2.88 235.42-3.91L235.42-3.91Q236.01 0.44 239.43 0.49ZM229.71-1.46L229.71-1.46Q226.73-1.46 226.05-4.44L226.05-4.44Q225.9-5.13 225.9-5.96L225.9-5.96Q225.9-9.23 229.66-10.11L229.66-10.11Q231.66-10.55 235.47-10.6L235.47-10.6 235.47-6.69Q234.74-3.32 231.91-1.95L231.91-1.95Q230.78-1.46 229.71-1.46ZM256.27-1.22L256.27-1.22 252.75-1.22 252.75-10.94Q252.75-15.38 255.49-18.07L255.49-18.07Q256.56-19.09 257.29-19.14L257.29-19.14Q258.12-19.14 258.81-17.92L258.81-17.92Q259.59-16.55 260.27-16.36L260.27-16.36Q260.57-16.26 260.86-16.26L260.86-16.26Q262.32-16.26 262.71-17.68L262.71-17.68Q262.81-17.97 262.81-18.26L262.81-18.26Q262.81-20.46 260.57-20.95L260.57-20.95Q260.08-21.04 259.64-21.04L259.64-21.04Q256.71-21.04 254.41-18.55L254.41-18.55Q253.34-17.38 252.7-15.92L252.7-15.92 252.51-20.75 245.43-20.75 245.43-19.53 249.09-19.53 249.09-4.15Q249.09-1.9 247.82-1.46L247.82-1.46Q247.09-1.22 245.43-1.22L245.43-1.22 245.43 0 257.49 0Q257.49-1.07 256.76-1.17L256.76-1.17Q256.56-1.22 256.27-1.22ZM274.04-1.22L274.04-1.22 271.84-1.22 271.84-11.77Q271.99-16.31 275.07-18.31L275.07-18.31Q276.38-19.14 277.75-19.14L277.75-19.14Q280.73-19.14 281.8-16.36L281.8-16.36Q282.24-15.23 282.24-13.82L282.24-13.82 282.24-4.15Q282.24-1.9 280.97-1.46L280.97-1.46Q280.24-1.22 278.58-1.22L278.58-1.22 278.58 0 289.57 0Q289.57-1.07 288.83-1.17L288.83-1.17Q288.64-1.22 288.35-1.22L288.35-1.22 285.91-1.22 285.91-13.33Q285.91-18.21 282.54-20.31L282.54-20.31Q280.97-21.24 279.17-21.24L279.17-21.24Q275.55-21.24 273.21-18.36L273.21-18.36Q272.33-17.24 271.79-15.87L271.79-15.87 271.6-20.75 264.52-20.75 264.52-19.53 268.18-19.53 268.18-4.15Q268.18-1.9 266.91-1.46L266.91-1.46Q266.18-1.22 264.52-1.22L264.52-1.22 264.52 0 275.26 0Q275.26-1.07 274.53-1.17L274.53-1.17Q274.33-1.22 274.04-1.22ZM302.4-9.13L302.4-11.43 313.54-11.43 313.54-9.13 302.4-9.13ZM338.19-1.22L338.19-1.22 335.55-1.22 335.55-31.74 328.23-31.74 328.23-30.52 331.89-30.52 331.89-4.15Q331.89-1.9 330.62-1.46L330.62-1.46Q329.89-1.22 328.23-1.22L328.23-1.22 328.23 0 339.41 0Q339.41-1.07 338.68-1.17L338.68-1.17Q338.48-1.22 338.19-1.22ZM352.88-20.02L352.88-20.02Q356.3-20.02 357.43-17.14L357.43-17.14Q357.82-16.21 357.82-15.14L357.82-15.14Q357.82-12.7 355.47-12.16L355.47-12.16Q354.25-11.91 352.01-11.96L352.01-11.96 346.83-12.11Q347.07-17.72 350.49-19.43L350.49-19.43Q351.62-20.02 352.88-20.02ZM361.38-4.69L361.38-4.69 360.16-5.13Q358.45-1.42 354.64-0.93L354.64-0.93Q354.15-0.88 353.71-0.88L353.71-0.88Q348.59-0.88 347.27-6.98L347.27-6.98Q346.88-8.69 346.83-10.74L346.83-10.74 352.69-10.64Q358.65-10.55 360.36-11.77L360.36-11.77Q361.67-12.74 361.67-14.55L361.67-14.55Q361.67-17.87 358.3-19.82L358.3-19.82Q355.91-21.24 352.79-21.24L352.79-21.24Q346.68-21.24 344.05-16.16L344.05-16.16Q342.68-13.53 342.68-10.21L342.68-10.21Q342.68-4.15 347.03-1.22L347.03-1.22Q349.61 0.49 352.93 0.49L352.93 0.49Q358.21 0.49 360.7-3.32L360.7-3.32Q361.09-4 361.38-4.69ZM382.47 0.49L382.47 0.49Q386.23 0.49 386.62-4.05L386.62-4.05Q386.67-4.35 386.67-4.59L386.67-4.59 385.4-4.64Q385.06-1.07 383.5-1.03L383.5-1.03Q382.23-1.12 382.18-3.56L382.18-3.56 382.18-13.87Q382.18-20.85 375.2-21.24L375.2-21.24Q374.76-21.24 374.32-21.24L374.32-21.24Q368.85-21.24 366.99-18.7L366.99-18.7Q366.41-17.87 366.41-17.04L366.41-17.04Q366.41-15.53 367.82-15.28L367.82-15.28Q368.07-15.23 368.31-15.23L368.31-15.23Q369.43-15.23 369.97-16.65L369.97-16.65Q370.66-18.46 370.9-18.8L370.9-18.8Q371.83-20.02 373.78-20.02L373.78-20.02Q378.37-19.73 378.52-14.99L378.52-14.99 378.52-11.91Q367.04-11.91 365.38-7.13L365.38-7.13Q365.09-6.2 365.09-5.13L365.09-5.13Q365.09-1.42 368.36-0.05L368.36-0.05Q369.68 0.49 371.14 0.49L371.14 0.49Q374.71 0.49 377.15-1.95L377.15-1.95Q378.03-2.88 378.47-3.91L378.47-3.91Q379.05 0.44 382.47 0.49ZM372.76-1.46L372.76-1.46Q369.78-1.46 369.09-4.44L369.09-4.44Q368.95-5.13 368.95-5.96L368.95-5.96Q368.95-9.23 372.71-10.11L372.71-10.11Q374.71-10.55 378.52-10.6L378.52-10.6 378.52-6.69Q377.78-3.32 374.95-1.95L374.95-1.95Q373.83-1.46 372.76-1.46ZM399.32-1.22L399.32-1.22 395.8-1.22 395.8-10.94Q395.8-15.38 398.53-18.07L398.53-18.07Q399.61-19.09 400.34-19.14L400.34-19.14Q401.17-19.14 401.85-17.92L401.85-17.92Q402.64-16.55 403.32-16.36L403.32-16.36Q403.61-16.26 403.91-16.26L403.91-16.26Q405.37-16.26 405.76-17.68L405.76-17.68Q405.86-17.97 405.86-18.26L405.86-18.26Q405.86-20.46 403.61-20.95L403.61-20.95Q403.12-21.04 402.68-21.04L402.68-21.04Q399.75-21.04 397.46-18.55L397.46-18.55Q396.39-17.38 395.75-15.92L395.75-15.92 395.56-20.75 388.48-20.75 388.48-19.53 392.14-19.53 392.14-4.15Q392.14-1.9 390.87-1.46L390.87-1.46Q390.14-1.22 388.48-1.22L388.48-1.22 388.48 0 400.54 0Q400.54-1.07 399.8-1.17L399.8-1.17Q399.61-1.22 399.32-1.22ZM417.09-1.22L417.09-1.22 414.89-1.22 414.89-11.77Q415.04-16.31 418.11-18.31L418.11-18.31Q419.43-19.14 420.8-19.14L420.8-19.14Q423.78-19.14 424.85-16.36L424.85-16.36Q425.29-15.23 425.29-13.82L425.29-13.82 425.29-4.15Q425.29-1.9 424.02-1.46L424.02-1.46Q423.29-1.22 421.63-1.22L421.63-1.22 421.63 0 432.61 0Q432.61-1.07 431.88-1.17L431.88-1.17Q431.69-1.22 431.39-1.22L431.39-1.22 428.95-1.22 428.95-13.33Q428.95-18.21 425.58-20.31L425.58-20.31Q424.02-21.24 422.21-21.24L422.21-21.24Q418.6-21.24 416.26-18.36L416.26-18.36Q415.38-17.24 414.84-15.87L414.84-15.87 414.64-20.75 407.56-20.75 407.56-19.53 411.23-19.53 411.23-4.15Q411.23-1.9 409.96-1.46L409.96-1.46Q409.22-1.22 407.56-1.22L407.56-1.22 407.56 0 418.31 0Q418.31-1.07 417.57-1.17L417.57-1.17Q417.38-1.22 417.09-1.22ZM444.33-20.75L444.33-19.53 447.75-19.53 447.75-5.76Q448.09 0.34 453.36 0.54L453.36 0.54Q457.85 0.54 458.98-4.98L458.98-4.98Q458.98-5.03 458.98-5.08L458.98-5.08 457.66-5.32Q456.44-1.27 454.09-0.93L454.09-0.93Q451.46-1.03 451.41-4.69L451.41-4.69 451.41-19.53 458.98-19.53 458.98-20.75 451.41-20.75 451.41-26.42 447.75-25.39 447.75-20.75 444.33-20.75ZM465.32-10.4L465.32-10.4Q465.32-17.97 469.47-19.63L469.47-19.63Q470.55-20.02 471.72-20.02L471.72-20.02Q477.14-20.02 478.02-13.18L478.02-13.18Q478.16-12.01 478.16-10.6L478.16-10.6Q478.16-2.39 473.67-0.98L473.67-0.98Q472.79-0.73 471.86-0.73L471.86-0.73Q466.93-0.73 465.66-6.59L465.66-6.59Q465.32-8.3 465.32-10.4ZM471.86-21.24L471.86-21.24Q467.18-21.24 464.05-18.02L464.05-18.02Q461.17-15.04 461.17-10.6L461.17-10.6Q461.17-4.44 465.66-1.37L465.66-1.37Q468.4 0.49 471.72 0.49L471.72 0.49Q476.4 0.49 479.48-2.83L479.48-2.83Q482.31-5.86 482.31-10.4L482.31-10.4Q482.31-16.55 477.77-19.53L477.77-19.53Q475.09-21.24 471.86-21.24ZM503.06-0.83L503.06-0.83Q506.43-0.83 507.6-2.88L507.6-2.88Q508.04-3.61 508.04-4.49L508.04-4.49Q508.04-6.54 505.06-8.01L505.06-8.01Q504.43-8.35 502.96-8.98L502.96-8.98Q498.96-10.64 497.64-12.11L497.64-12.11Q496.22-13.72 496.22-15.87L496.22-15.87Q496.22-19.24 499.94-20.61L499.94-20.61Q501.64-21.24 503.65-21.24L503.65-21.24Q506.87-21.24 509.21-19.87L509.21-19.87Q509.21-21.29 509.9-21.48L509.9-21.48Q510.19-21.53 510.53-21.53L510.53-21.53 510.53-15.43 509.26-15.43Q509.16-19.92 504.28-19.97L504.28-19.97Q500.62-19.97 499.74-17.82L499.74-17.82Q499.5-17.24 499.5-16.6L499.5-16.6Q499.5-14.5 502.52-13.04L502.52-13.04Q503.21-12.7 504.67-12.11L504.67-12.11Q508.63-10.5 509.94-9.03L509.94-9.03Q511.36-7.47 511.36-5.32L511.36-5.32Q511.36-1.37 507.16-0.05L507.16-0.05Q505.55 0.49 503.65 0.49L503.65 0.49Q500.13 0.44 497.54-1.27L497.54-1.27Q497.54 0 496.91 0.2L496.91 0.2Q496.61 0.24 496.22 0.24L496.22 0.24 496.22-7.18 497.59-7.18Q497.69-0.88 503.06-0.83ZM525.32 8.06L521.91 8.06 521.91-2.05Q524.59 0.29 528.11 0.49L528.11 0.49Q532.45 0.49 535.38-2.78L535.38-2.78Q538.21-5.96 538.21-10.84L538.21-10.84Q538.21-16.41 535.14-19.29L535.14-19.29Q532.99-21.24 529.91-21.24L529.91-21.24Q525.18-21.24 522.83-17.48L522.83-17.48Q522.25-16.5 521.86-15.43L521.86-15.43 521.61-20.75 514.58-20.75 514.58-19.53 518.24-19.53 518.24 5.13Q518.24 7.37 516.97 7.81L516.97 7.81Q516.24 8.06 514.58 8.06L514.58 8.06 514.58 9.28 526.54 9.28Q526.54 8.2 525.81 8.11L525.81 8.11Q525.62 8.06 525.32 8.06L525.32 8.06ZM528.35-19.29L528.35-19.29Q532.6-19.29 533.72-13.96L533.72-13.96Q534.06-12.35 534.06-10.35L534.06-10.35Q534.06-3.17 530.21-1.27L530.21-1.27Q529.08-0.73 527.76-0.73L527.76-0.73Q524-0.73 522.59-4.69L522.59-4.69Q521.86-6.69 521.86-9.42L521.86-9.42Q521.86-15.77 525.13-18.21L525.13-18.21Q526.59-19.29 528.35-19.29ZM552.32-20.02L552.32-20.02Q555.74-20.02 556.86-17.14L556.86-17.14Q557.25-16.21 557.25-15.14L557.25-15.14Q557.25-12.7 554.91-12.16L554.91-12.16Q553.69-11.91 551.44-11.96L551.44-11.96 546.27-12.11Q546.51-17.72 549.93-19.43L549.93-19.43Q551.05-20.02 552.32-20.02ZM560.82-4.69L560.82-4.69 559.6-5.13Q557.89-1.42 554.08-0.93L554.08-0.93Q553.59-0.88 553.15-0.88L553.15-0.88Q548.03-0.88 546.71-6.98L546.71-6.98Q546.32-8.69 546.27-10.74L546.27-10.74 552.13-10.64Q558.08-10.55 559.79-11.77L559.79-11.77Q561.11-12.74 561.11-14.55L561.11-14.55Q561.11-17.87 557.74-19.82L557.74-19.82Q555.35-21.24 552.22-21.24L552.22-21.24Q546.12-21.24 543.48-16.16L543.48-16.16Q542.12-13.53 542.12-10.21L542.12-10.21Q542.12-4.15 546.46-1.22L546.46-1.22Q549.05 0.49 552.37 0.49L552.37 0.49Q557.64 0.49 560.14-3.32L560.14-3.32Q560.53-4 560.82-4.69ZM581.91 0.49L581.91 0.49Q585.67 0.49 586.06-4.05L586.06-4.05Q586.11-4.35 586.11-4.59L586.11-4.59 584.84-4.64Q584.5-1.07 582.94-1.03L582.94-1.03Q581.67-1.12 581.62-3.56L581.62-3.56 581.62-13.87Q581.62-20.85 574.63-21.24L574.63-21.24Q574.2-21.24 573.76-21.24L573.76-21.24Q568.29-21.24 566.43-18.7L566.43-18.7Q565.85-17.87 565.85-17.04L565.85-17.04Q565.85-15.53 567.26-15.28L567.26-15.28Q567.51-15.23 567.75-15.23L567.75-15.23Q568.87-15.23 569.41-16.65L569.41-16.65Q570.09-18.46 570.34-18.8L570.34-18.8Q571.27-20.02 573.22-20.02L573.22-20.02Q577.81-19.73 577.95-14.99L577.95-14.99 577.95-11.91Q566.48-11.91 564.82-7.13L564.82-7.13Q564.53-6.2 564.53-5.13L564.53-5.13Q564.53-1.42 567.8-0.05L567.8-0.05Q569.12 0.49 570.58 0.49L570.58 0.49Q574.15 0.49 576.59-1.95L576.59-1.95Q577.47-2.88 577.91-3.91L577.91-3.91Q578.49 0.44 581.91 0.49ZM572.19-1.46L572.19-1.46Q569.21-1.46 568.53-4.44L568.53-4.44Q568.38-5.13 568.38-5.96L568.38-5.96Q568.38-9.23 572.14-10.11L572.14-10.11Q574.15-10.55 577.95-10.6L577.95-10.6 577.95-6.69Q577.22-3.32 574.39-1.95L574.39-1.95Q573.27-1.46 572.19-1.46ZM597.39-1.22L597.39-1.22 595.19-1.22 595.19-8.45 597.87-10.94 604.76 0 611.25 0Q611.25-1.07 610.52-1.17L610.52-1.17Q610.33-1.22 610.03-1.22L610.03-1.22 608.27-1.22 600.41-13.33 605-17.63Q606.71-19.24 607.59-19.43L607.59-19.43Q607.98-19.53 608.47-19.53L608.47-19.53Q609.54-19.53 609.64-20.26L609.64-20.26Q609.69-20.51 609.69-20.75L609.69-20.75 601.39-20.75 601.39-19.53 605.05-19.53 595.19-10.4 595.19-31.74 587.86-31.74 587.86-30.52 591.53-30.52 591.53-4.15Q591.53-1.9 590.26-1.46L590.26-1.46Q589.52-1.22 587.86-1.22L587.86-1.22 587.86 0 598.61 0Q598.61-1.07 597.87-1.17L597.87-1.17Q597.68-1.22 597.39-1.22Z" opacity="1" transform="matrix(1,0,0,1,0,0)" fill="#ffd700" class="slogan-text-1" data-fill-palette-color="secondary" id="text-1"></path></svg></g></svg></g></svg></g></svg></g></svg></g><defs></defs></svg><rect width="395.52" height="74.38998139431406" fill="none" stroke="none" visibility="hidden"></rect></g></svg></g></svg>