<svg xmlns="http://www.w3.org/2000/svg" version="1.1" xmlns:xlink="http://www.w3.org/1999/xlink" xmlns:svgjs="http://svgjs.dev/svgjs" width="1500" height="1500" viewBox="0 0 1500 1500"><g transform="matrix(1,0,0,1,-0.7499999999998863,-0.7493657890496479)"><svg viewBox="0 0 280 280" data-background-color="#ffffff" preserveAspectRatio="xMidYMid meet" height="1500" width="1500" xmlns="http://www.w3.org/2000/svg" xmlns:xlink="http://www.w3.org/1999/xlink"><g id="tight-bounds" transform="matrix(1,0,0,1,0.13999999999998636,0.1398816139559358)"><svg viewBox="0 0 279.72 279.72" height="279.72" width="279.72"><g><svg viewBox="0 0 279.72 279.72" height="279.72" width="279.72"><g><svg viewBox="0 0 279.72 279.72" height="279.72" width="279.72"><g id="textblocktransform"><svg viewBox="0 0 279.72 279.72" height="279.72" width="279.72" id="textblock"><g><svg viewBox="0 0 279.72 279.72" height="279.72" width="279.72"><g transform="matrix(1,0,0,1,51.51294738770285,60.950301993831545)"><svg viewBox="0 0 176.69410522459432 157.81939601233694" height="157.81939601233694" width="176.69410522459432"><g id="icon-0"><svg xmlns="http://www.w3.org/2000/svg" xmlns:xlink="http://www.w3.org/1999/xlink" version="1.1" x="0" y="0" viewBox="4.45 9.55 92.21 82.36" enable-background="new 0 0 100 100" xml:space="preserve" height="157.81939601233694" width="176.69410522459432" class="icon-jxe-0" data-fill-palette-color="accent" id="jxe-0"><polygon points="88.38,33.89 84.05,26.39 75.78,12.052 72.891,17.05 79.721,28.89 66.05,28.89 63.16,33.89 79.721,33.89   71.45,48.23 77.221,48.23 84.05,36.39 90.891,48.23 96.66,48.23 " fill="#f9e17e" data-fill-palette-color="accent"></polygon><polygon points="71.45,9.55 54.891,9.55 46.23,9.55 29.67,9.55 32.56,14.55 46.23,14.55 39.39,26.39 42.28,31.39 50.561,17.05   58.83,31.389 61.719,26.39 61.72,26.389 54.891,14.55 68.559,14.55 " fill="#f9e17e" data-fill-palette-color="accent"></polygon><polygon points="37.95,33.89 35.06,28.89 21.39,28.89 28.23,17.05 25.34,12.05 17.06,26.39 12.73,33.89 4.45,48.23 10.23,48.23   17.06,36.39 23.9,48.23 29.67,48.23 21.39,33.89 " fill="#f9e17e" data-fill-palette-color="accent"></polygon><polygon points="37.95,67.57 21.39,67.57 29.67,53.23 23.9,53.23 17.06,65.07 10.23,53.23 4.46,53.23 12.73,67.57 17.06,75.07   25.34,89.41 28.23,84.41 21.39,72.57 35.06,72.57 " fill="#f9e17e" data-fill-palette-color="accent"></polygon><polygon points="68.561,86.91 54.891,86.91 61.721,75.07 58.83,70.07 50.561,84.41 42.28,70.07 39.39,75.07 46.23,86.91   32.56,86.91 29.67,91.91 46.23,91.91 54.891,91.91 71.451,91.91 " fill="#f9e17e" data-fill-palette-color="accent"></polygon><polygon points="90.891,53.23 84.05,65.07 77.221,53.23 71.45,53.23 79.721,67.57 63.16,67.57 66.05,72.57 79.721,72.57   72.891,84.41 75.781,89.41 84.051,75.07 84.051,75.069 88.38,67.57 96.66,53.23 " fill="#f9e17e" data-fill-palette-color="accent"></polygon></svg></g></svg></g><g id="text-0"><path d="M9.845 105.74l-6.968-2.462 6.983-19.765 6.968 2.461-0.61 1.726-5.352-0.697-1.919 5.432 19.671 6.95 2.039-3.236 1.422 0.502-3.657 10.352-1.422-0.502 0.446-3.799-19.671-6.949-1.932 5.47 4.611 2.792z" fill="#f9e17e" data-fill-palette-color="primary"></path><path d="M40.213 78.307l0.637-2.363-6.719-4.045c-1.304-0.785-2.298-1.336-2.982-1.654-0.685-0.318-1.263-0.494-1.736-0.529v0c-1.278-0.112-2.304 0.475-3.078 1.761v0c-0.339 0.563-0.565 1.166-0.679 1.81-0.114 0.644-0.117 1.267-0.011 1.871v0c0.113 0.67 0.372 1.273 0.778 1.806 0.406 0.534 0.988 1.056 1.744 1.567v0l8.166 4.916 1.791-1.668 1.231 0.741-4.371 7.262-1.232-0.742 0.823-2.673-19.889-11.974-1.968 1.983-1.232-0.741 3.158-5.246 10.061 6.057c-0.602-1.184-0.885-2.442-0.85-3.774 0.035-1.332 0.399-2.573 1.09-3.721v0c0.484-0.804 1.06-1.443 1.729-1.917 0.669-0.474 1.378-0.743 2.129-0.807v0c0.805-0.063 1.767 0.125 2.887 0.565 1.111 0.442 2.531 1.183 4.26 2.224v0l6.658 4.008 1.977-1.978 1.232 0.742-4.372 7.261z" fill="#f9e17e" data-fill-palette-color="primary"></path><path d="M51.496 51.243v0l-8.11 9.216c1.283 1.129 2.502 1.89 3.658 2.282v0c1.12 0.361 2.142 0.371 3.065 0.032 0.923-0.339 1.719-0.889 2.388-1.649v0c0.726-0.825 1.219-1.735 1.479-2.73 0.26-0.985 0.332-2.016 0.216-3.091v0l1.378-0.288c0.301 1.363 0.363 2.748 0.187 4.156-0.176 1.408-0.875 2.806-2.098 4.194v0c-1.067 1.213-2.272 2.059-3.613 2.539-1.337 0.475-2.726 0.516-4.167 0.124v0c-0.778-0.212-1.555-0.551-2.33-1.02-0.78-0.463-1.55-1.029-2.31-1.697v0c-2.461-2.165-3.87-4.414-4.228-6.747-0.353-2.328 0.33-4.469 2.048-6.422v0c1.581-1.796 3.359-2.691 5.335-2.684 1.976 0.007 3.95 0.878 5.923 2.614v0c0.176 0.155 0.335 0.304 0.478 0.447 0.147 0.138 0.38 0.379 0.701 0.724zM40.346 51.556v0c-1.86 2.113-1.272 4.693 1.762 7.738v0l5.812-6.604-0.868-0.764c-1.268-1.116-2.484-1.708-3.647-1.776-1.158-0.064-2.178 0.405-3.059 1.406z" fill="#f9e17e" data-fill-palette-color="primary"></path><path d="M78.566 14.753l-2.136 2.171 10.887 17.749 2.908-0.911 0.789 1.286-8.031 4.925-0.788-1.285 2.122-2.175-5.094-8.304-10.156 6.229 5.094 8.305 2.9-0.906 0.789 1.285-8.031 4.926-0.788-1.286 2.13-2.179-10.887-17.75-2.903 0.92-0.794-1.294 8.031-4.926 0.793 1.295-2.127 2.165 4.726 7.705 10.156-6.229-4.726-7.705-2.895 0.915-0.794-1.294 8.031-4.926z" fill="#f9e17e" data-fill-palette-color="primary"></path><path d="M105.882 19.898v0l-11.542 4.181c0.582 1.607 1.285 2.86 2.11 3.759v0c0.809 0.855 1.699 1.356 2.672 1.502 0.973 0.147 1.935 0.048 2.887-0.297v0c1.034-0.374 1.903-0.935 2.609-1.683 0.702-0.739 1.261-1.608 1.676-2.606v0l1.346 0.411c-0.392 1.34-1.003 2.584-1.835 3.733-0.831 1.149-2.117 2.039-3.856 2.669v0c-1.519 0.55-2.982 0.713-4.389 0.488-1.401-0.227-2.639-0.859-3.712-1.895v0c-0.581-0.56-1.098-1.231-1.553-2.015-0.461-0.781-0.864-1.648-1.209-2.599v0c-1.116-3.082-1.27-5.731-0.462-7.949 0.81-2.211 2.438-3.759 4.883-4.645v0c2.25-0.815 4.239-0.744 5.969 0.212 1.729 0.956 3.041 2.67 3.936 5.14v0c0.08 0.221 0.148 0.428 0.204 0.622 0.062 0.191 0.151 0.516 0.267 0.972zM95.956 14.81v0c-2.647 0.959-3.372 3.503-2.177 7.632v0l8.272-2.995-0.394-1.087c-0.575-1.588-1.356-2.692-2.343-3.311-0.985-0.613-2.104-0.692-3.358-0.239z" fill="#f9e17e" data-fill-palette-color="primary"></path><path d="M129.213 15.398v0c0.245 1.502 0.259 2.96 0.042 4.374-0.217 1.414-0.645 2.639-1.285 3.674v0c-1.051 1.713-2.794 2.769-5.228 3.166v0c-1.177 0.192-2.274 0.093-3.289-0.298-1.015-0.391-2-1.269-2.956-2.634v0l-0.47 3.673-1.637 0.267-4.083-24.995-2.776-0.219-0.232-1.419 6.043-0.987 1.689 10.339c0.551-0.993 1.225-1.732 2.022-2.215 0.796-0.49 1.727-0.822 2.791-0.996v0c1.184-0.193 2.284-0.193 3.301 0.001 1.015 0.187 1.886 0.612 2.613 1.275v0c0.858 0.763 1.59 1.751 2.195 2.962 0.598 1.206 1.018 2.55 1.26 4.032zM116.211 17.563v0c0.23 1.409 0.533 2.616 0.907 3.621 0.382 1.011 0.822 1.808 1.318 2.393v0c0.464 0.515 0.994 0.89 1.59 1.126 0.595 0.236 1.323 0.283 2.183 0.142v0c0.787-0.129 1.451-0.387 1.992-0.773 0.542-0.381 0.957-0.856 1.245-1.426v0c0.318-0.67 0.483-1.553 0.494-2.648 0.011-1.095-0.097-2.338-0.324-3.727v0c-0.227-1.389-0.528-2.586-0.902-3.591-0.382-1.011-0.822-1.808-1.318-2.393v0c-0.469-0.541-1-0.923-1.593-1.146-0.6-0.221-1.34-0.26-2.219-0.116v0c-0.787 0.129-1.454 0.373-1.999 0.734-0.546 0.361-0.937 0.836-1.174 1.425v0c-0.265 0.709-0.422 1.594-0.473 2.654-0.05 1.068 0.041 2.309 0.273 3.725z" fill="#f9e17e" data-fill-palette-color="primary"></path><path d="M145.378 7.926v0c-0.093-0.074-0.204-0.129-0.331-0.163-0.134-0.034-0.258-0.052-0.371-0.053v0c-0.282-0.002-0.587 0.124-0.918 0.376-0.33 0.259-0.651 0.606-0.961 1.04-0.304 0.427-0.586 0.921-0.844 1.482v0c-0.334 0.796-0.597 1.669-0.791 2.619-0.194 0.951-0.294 1.929-0.301 2.934v0l-0.042 6.576 3.786 0.698-0.009 1.437-9.913-0.063 0.009-1.438 2.709-0.656 0.094-14.769-2.7-0.691 0.009-1.438 5.068 0.032 0.744 4.65 0.141 0.001c0.546-1.592 1.278-2.82 2.195-3.686 0.924-0.859 1.935-1.285 3.035-1.277v0c0.918 0.006 1.681 0.299 2.286 0.879 0.606 0.574 0.906 1.343 0.901 2.308v0c-0.004 0.704-0.192 1.259-0.564 1.665-0.365 0.407-0.852 0.608-1.462 0.604v0c-0.61-0.004-1.088-0.198-1.434-0.582-0.353-0.391-0.527-0.905-0.523-1.542v0c0.001-0.141 0.015-0.275 0.043-0.401 0.021-0.127 0.069-0.308 0.144-0.542z" fill="#f9e17e" data-fill-palette-color="primary"></path><path d="M169.256 18.714v0l-12.121-1.945c-0.271 1.688-0.264 3.125 0.021 4.31v0c0.292 1.14 0.828 2.01 1.608 2.611 0.779 0.6 1.669 0.981 2.668 1.141v0c1.085 0.174 2.118 0.106 3.098-0.206 0.972-0.306 1.882-0.794 2.73-1.466v0l0.978 1.012c-0.992 0.981-2.131 1.773-3.416 2.375-1.285 0.602-2.84 0.756-4.666 0.463v0c-1.595-0.256-2.953-0.824-4.075-1.703-1.115-0.878-1.89-2.031-2.327-3.459v0c-0.236-0.771-0.363-1.609-0.38-2.515-0.024-0.907 0.044-1.86 0.204-2.859v0c0.519-3.236 1.67-5.628 3.453-7.175 1.781-1.54 3.956-2.104 6.524-1.692v0c2.363 0.379 4.068 1.406 5.116 3.082 1.048 1.675 1.364 3.81 0.948 6.404v0c-0.037 0.232-0.078 0.446-0.124 0.642-0.038 0.197-0.118 0.524-0.238 0.98zM163.045 9.449v0c-2.78-0.446-4.648 1.426-5.606 5.617v0l8.687 1.394 0.183-1.142c0.268-1.668 0.12-3.012-0.443-4.032-0.564-1.014-1.504-1.626-2.821-1.837z" fill="#f9e17e" data-fill-palette-color="primary"></path><path d="M183.855 15.239l-2.499-0.283-1.387 13.092-0.389 2.088 0.159 0.064 1.171-1.772 9.488-12.475 2.349 0.95-1.723 15.613-0.388 2.088 0.13 0.053 1.172-1.772 8.005-10.417-1.872-1.483 0.538-1.333 6.199 2.505-0.539 1.333-2.014-0.088-11.314 14.015-3.365-1.36 1.261-14.282-8.923 11.185-3.356-1.357 1.47-17.992-1.481-1.326 0.539-1.333 7.308 2.954z" fill="#f9e17e" data-fill-palette-color="primary"></path><path d="M232.014 35.736v0c-0.884-0.74-1.748-1.232-2.592-1.477-0.846-0.254-1.725-0.273-2.639-0.059v0c-1.129 0.252-2.323 0.821-3.582 1.708-1.264 0.882-2.468 2.007-3.613 3.374v0c-1.067 1.274-1.932 2.583-2.593 3.926-0.667 1.339-1.072 2.59-1.217 3.755v0c-0.15 1.16-0.024 2.205 0.377 3.136 0.396 0.926 1.115 1.826 2.158 2.699v0c3.237 2.711 6.387 2.766 9.45 0.164v0l1.488 1.246c-4.32 3.508-8.537 3.538-12.654 0.091v0c-2.477-2.074-3.85-4.449-4.119-7.123v0c-0.161-1.604 0.074-3.256 0.704-4.958 0.63-1.702 1.616-3.355 2.959-4.958v0c1.519-1.814 3.195-3.209 5.025-4.184 1.826-0.98 3.647-1.457 5.462-1.432v0c2.318 0.009 4.6 0.954 6.846 2.835v0c1.115 0.934 1.904 1.84 2.366 2.717 0.458 0.873 0.719 1.966 0.783 3.278v0l1.966-1.251 1.48 1.24-4.991 5.958-1.641-1.376c1.07-1.788 1.485-3.464 1.247-5.027-0.233-1.559-1.123-2.986-2.67-4.282z" fill="#f9e17e" data-fill-palette-color="primary"></path><path d="M227.404 61.878l2.274 1.611 17.602-15.136-1.26-2.484 1.09-0.937 3.992 4.642-19.195 16.507 1.253 2.49-1.09 0.937-5.756-6.693z" fill="#f9e17e" data-fill-palette-color="primary"></path><path d="M250.055 62.077l3.057 4.895-8.442 5.273c-1.273 0.795-2.213 1.429-2.819 1.902-0.596 0.475-1.018 0.913-1.266 1.313v0c-0.339 0.52-0.497 1.077-0.474 1.67 0.02 0.588 0.211 1.172 0.573 1.753v0c0.334 0.534 0.756 0.99 1.267 1.365 0.508 0.37 1.051 0.639 1.631 0.808v0c1.241 0.355 2.663 0.088 4.264-0.802v0l7.965-4.975-1.048-2.949 1.22-0.762 3.424 5.484-14.318 8.942 0.867 2.659-1.22 0.762-3.185-4.436 3.076-2.383-0.075-0.119c-1.376 0.061-2.668-0.223-3.875-0.852-1.207-0.629-2.164-1.509-2.87-2.641v0c-0.472-0.756-0.76-1.54-0.864-2.352-0.106-0.803-0.021-1.54 0.255-2.211v0c0.323-0.723 0.933-1.492 1.832-2.305 0.908-0.812 2.206-1.745 3.894-2.8v0l6.592-4.116-0.68-2.361z" fill="#f9e17e" data-fill-palette-color="primary"></path><path d="M261.4 105.727v0c-1.421 0.544-2.846 0.853-4.275 0.927-1.429 0.074-2.715-0.098-3.858-0.514v0c-1.891-0.682-3.277-2.175-4.16-4.479v0c-0.427-1.114-0.551-2.208-0.374-3.28 0.178-1.073 0.838-2.216 1.981-3.43v0l-3.692 0.284-0.593-1.549 23.65-9.061-0.348-2.763 1.343-0.514 2.19 5.718-9.783 3.748c1.084 0.338 1.944 0.849 2.579 1.531 0.641 0.68 1.155 1.524 1.541 2.532v0c0.429 1.12 0.652 2.198 0.667 3.233 0.022 1.032-0.217 1.971-0.719 2.816v0c-0.573 0.995-1.392 1.912-2.456 2.75-1.06 0.83-2.291 1.513-3.693 2.051zM256.646 93.432v0c-1.333 0.511-2.454 1.051-3.362 1.622-0.912 0.579-1.604 1.171-2.076 1.776v0c-0.41 0.559-0.67 1.154-0.781 1.784-0.11 0.631-0.009 1.353 0.303 2.167v0c0.285 0.745 0.672 1.343 1.161 1.795 0.483 0.454 1.032 0.764 1.648 0.929v0c0.721 0.176 1.618 0.159 2.694-0.052 1.075-0.211 2.27-0.568 3.584-1.071v0c1.314-0.504 2.426-1.041 3.334-1.611 0.912-0.579 1.604-1.171 2.076-1.776v0c0.435-0.569 0.702-1.166 0.799-1.792 0.095-0.632-0.017-1.365-0.336-2.197v0c-0.285-0.745-0.66-1.348-1.123-1.809-0.464-0.461-1.008-0.748-1.633-0.86v0c-0.748-0.116-1.646-0.091-2.695 0.074-1.056 0.168-2.253 0.508-3.593 1.021z" fill="#f9e17e" data-fill-palette-color="primary"></path><path d="M2.823 142.484c0-5.787 4.691-10.478 10.479-10.478 5.787 0 10.478 4.691 10.478 10.478 0 5.787-4.691 10.478-10.478 10.478-5.787 0-10.478-4.691-10.479-10.478z" fill="#f9e17e" data-fill-palette-color="primary"></path><path d="M255.94 142.484c0-5.787 4.691-10.478 10.478-10.478 5.787 0 10.478 4.691 10.479 10.478 0 5.787-4.691 10.478-10.479 10.478-5.787 0-10.478-4.691-10.478-10.478z" fill="#f9e17e" data-fill-palette-color="primary"></path></g><g id="text-1"><path d="M63.57 255.242l7.923 5.757c0.39-0.537 0.417-0.985 0.082-1.345v0c-0.104-0.108-0.218-0.208-0.343-0.299v0l-1.244-0.904 6.899-27.163-1.358-0.987-23.516 15.089-2.31-1.679-0.692 0.952 6.531 4.746c0.39-0.537 0.417-0.985 0.083-1.345v0c-0.109-0.112-0.226-0.214-0.351-0.304v0l-1.797-1.306 7.928-5.114 7.662 5.568-2.422 9.114-2.383-1.732zM72.442 234.173l-2.999 11.379-6.865-4.988z" fill="#f9e17e" data-fill-palette-color="secondary"></path><path d="M90.446 264.642l-1.684 4.516 5.889 2.716c0.278-0.603 0.223-1.027-0.166-1.272v0c-0.096-0.081-0.225-0.159-0.39-0.235v0l-2.054-0.948 11.785-25.765-7.003-3.23-0.476 1.031 3.917 1.807-4.632 10.043c-0.66-2.106-2.131-3.685-4.414-4.738v0c-3.019-1.393-5.916-1.097-8.69 0.885v0c-1.698 1.217-3.022 2.854-3.971 4.912v0c-1.569 3.402-1.644 6.38-0.223 8.932v0c0.818 1.411 1.955 2.452 3.409 3.123v0c3.014 1.324 5.915 0.732 8.703-1.777zM82.29 255.488v0c1.786-3.871 3.984-5.902 6.597-6.092v0c0.829-0.053 1.639 0.103 2.43 0.468v0c2.009 0.926 2.942 2.656 2.8 5.189v0c-0.062 1.367-0.454 2.832-1.176 4.396v0c-1.519 3.293-3.446 5.301-5.78 6.026v0c-1.244 0.393-2.429 0.33-3.555-0.19v0c-2.246-1.036-3.08-3.085-2.501-6.147v0c0.195-1.143 0.59-2.359 1.185-3.65z" fill="#f9e17e" data-fill-palette-color="secondary"></path><path d="M107.375 256.417l3.076 0.754 0.27-1.103-8.535-2.092-0.27 1.104 1.973 0.483 1.764 16.074c0.184 1.784 0.595 2.896 1.233 3.335v0c0.315 0.236 0.736 0.418 1.263 0.547v0l0.576 0.142 10.205-14.777c0.575-0.825 1.123-1.219 1.645-1.18v0c0.151 0.003 0.285 0.018 0.403 0.047v0c0.644 0.158 1.049 0.026 1.215-0.396v0c0.069-0.142 0.122-0.287 0.159-0.437v0l-6.787-1.664-0.271 1.104 3.311 0.811-9.276 13.648z" fill="#f9e17e" data-fill-palette-color="secondary"></path><path d="M137.068 279.704v0c2.319 0.179 3.71-1.122 4.173-3.904v0c0.041-0.178 0.067-0.344 0.079-0.498v0l-1.17-0.13c-0.383 2.182-1.057 3.25-2.022 3.202v0c-0.777-0.12-1.125-0.934-1.042-2.44v0l0.736-9.543c0.332-4.311-1.647-6.752-5.94-7.326v0c-0.267-0.021-0.538-0.041-0.812-0.062v0c-3.375-0.26-5.694 0.351-6.958 1.833v0c-0.401 0.487-0.62 0.984-0.659 1.492v0c-0.072 0.936 0.32 1.514 1.177 1.735v0c0.152 0.039 0.301 0.064 0.448 0.074v0c0.695 0.054 1.243-0.344 1.645-1.194v0c0.507-1.084 0.842-1.723 1.005-1.919v0c0.633-0.711 1.554-1.02 2.764-0.926v0c2.813 0.398 4.153 2.065 4.021 4.999v0l-0.219 2.847c-7.084-0.546-11.251 0.618-12.502 3.493v0c-0.224 0.554-0.362 1.165-0.413 1.834v0c-0.176 2.286 0.712 3.927 2.665 4.925v0c0.79 0.397 1.635 0.63 2.538 0.699v0c2.199 0.17 4.111-0.439 5.738-1.826v0c0.586-0.533 1.037-1.107 1.352-1.721v0c0.16 2.715 1.292 4.167 3.396 4.356zM128.215 277.206v0c-1.838-0.142-2.896-1.148-3.176-3.018v0c-0.061-0.428-0.072-0.9-0.032-1.414v0c0.156-2.018 1.414-3.209 3.774-3.571v0c1.257-0.179 3.064-0.194 5.419-0.046v0l-0.279 3.619c-0.615 2.043-1.827 3.422-3.636 4.136v0c-0.718 0.247-1.408 0.345-2.07 0.294z" fill="#f9e17e" data-fill-palette-color="secondary"></path><path d="M153.007 277.152v0l-2.029 0.22-1.059-9.735c-0.217-2.801 0.554-4.921 2.313-6.36v0c0.757-0.601 1.556-0.948 2.395-1.039v0c1.832-0.199 3.175 0.521 4.027 2.161v0c0.342 0.664 0.56 1.433 0.655 2.306v0l0.971 8.926c0.15 1.379-0.15 2.248-0.9 2.606v0c-0.437 0.196-1.166 0.349-2.185 0.46v0l0.123 1.129 10.145-1.103c-0.072-0.66-0.337-0.995-0.797-1.005v0c-0.124-0.02-0.275-0.021-0.456-0.002v0l-2.258 0.246-1.215-11.175c-0.327-3.005-1.596-5.042-3.81-6.109v0c-1.022-0.469-2.089-0.643-3.202-0.521v0c-2.226 0.242-3.962 1.327-5.208 3.256v0c-0.464 0.752-0.818 1.565-1.059 2.441v0l-0.67-4.488-6.537 0.711 0.122 1.129 3.379-0.367 1.544 14.203c0.15 1.379-0.15 2.248-0.9 2.606v0c-0.431 0.195-1.159 0.348-2.185 0.46v0l0.123 1.13 9.915-1.078c-0.072-0.66-0.334-0.995-0.787-1.007v0c-0.124-0.02-0.275-0.021-0.455-0.001z" fill="#f9e17e" data-fill-palette-color="secondary"></path><path d="M169.265 266.454v0c1.046 3.507 3.118 5.743 6.217 6.708v0c1.913 0.598 3.881 0.595 5.905-0.009v0c3.013-0.898 4.971-2.633 5.876-5.204v0c0.206-0.6 0.335-1.174 0.389-1.721v0l-1.245-0.059c-0.391 2.607-1.782 4.392-4.173 5.357v0c-0.222 0.101-0.448 0.186-0.68 0.255v0c-2.062 0.615-3.977 0.067-5.746-1.644v0c-1.335-1.309-2.322-3.036-2.961-5.181v0c-1.13-3.79-0.887-6.622 0.729-8.495v0c0.686-0.771 1.534-1.307 2.542-1.608v0c1.567-0.467 2.693-0.139 3.379 0.986v0c0.127 0.214 0.305 0.553 0.533 1.016v0c0.52 1.111 1.055 1.742 1.604 1.893v0c0.331 0.055 0.678 0.046 1.041-0.028v0c1-0.235 1.499-0.825 1.497-1.768v0c-0.003-0.223-0.031-0.421-0.083-0.594v0c-0.441-1.477-1.745-2.414-3.912-2.81v0c-1.529-0.272-3.077-0.174-4.644 0.294v0c-3.88 1.157-6.116 3.544-6.708 7.162v0c-0.278 1.719-0.131 3.536 0.44 5.45z" fill="#f9e17e" data-fill-palette-color="secondary"></path><path d="M192.634 248.046v0c1.911-0.913 3.563-0.714 4.954 0.597v0c0.466 0.416 0.842 0.924 1.129 1.523v0c0.653 1.367 0.397 2.511-0.768 3.431v0c-0.617 0.466-1.559 0.982-2.825 1.55v0l-4.393 1.953c-1.367-3.203-1.322-5.738 0.132-7.606v0c0.473-0.627 1.063-1.11 1.771-1.448zM205.893 257.49v0l-1.199 0.127c0.033 2.525-0.951 4.432-2.949 5.721v0c-0.258 0.16-0.508 0.298-0.75 0.414v0c-2.867 1.37-5.484 0.525-7.851-2.534v0c-0.674-0.852-1.297-1.843-1.867-2.975v0l4.947-2.263c3.352-1.535 5.343-2.872 5.972-4.012v0c0.478-0.897 0.475-1.85-0.007-2.86v0c-0.884-1.851-2.531-2.873-4.941-3.066v0c-1.715-0.154-3.444 0.185-5.185 1.018v0c-3.411 1.63-5.174 4.214-5.289 7.752v0c-0.063 1.843 0.349 3.692 1.236 5.549v0c1.615 3.381 4.028 5.307 7.24 5.779v0c1.902 0.265 3.778-0.045 5.629-0.929v0c2.945-1.407 4.605-3.507 4.979-6.301v0c0.036-0.485 0.047-0.959 0.035-1.42z" fill="#f9e17e" data-fill-palette-color="secondary"></path><path d="M221.663 245.646l3.118 3.675 5.246-3.814c-0.39-0.537-0.787-0.696-1.192-0.476v0c-0.117 0.044-0.249 0.119-0.395 0.226v0l-1.83 1.33-16.732-22.865-6.238 4.535 0.668 0.919 3.489-2.537 6.503 8.946c-2.16-0.452-4.256 0.061-6.29 1.539v0c-2.689 1.955-3.846 4.627-3.47 8.017v0c0.233 2.076 1.016 4.031 2.348 5.863v0c2.203 3.031 4.765 4.549 7.687 4.555v0c1.631-0.025 3.094-0.509 4.389-1.451v0c2.627-1.984 3.526-4.805 2.699-8.462zM209.692 248.295v0c-2.507-3.448-3.205-6.359-2.096-8.731v0c0.358-0.749 0.89-1.38 1.595-1.893v0c1.789-1.301 3.754-1.271 5.895 0.09v0c1.162 0.721 2.25 1.779 3.263 3.172v0c2.132 2.933 2.944 5.595 2.436 7.986v0c-0.264 1.278-0.898 2.281-1.901 3.01v0c-2.001 1.454-4.196 1.181-6.586-0.818v0c-0.902-0.728-1.771-1.667-2.606-2.816z" fill="#f9e17e" data-fill-palette-color="secondary"></path></g></svg></g></svg></g></svg></g></svg></g><defs></defs></svg><rect width="279.72" height="279.72" fill="none" stroke="none" visibility="hidden"></rect></g></svg></g></svg>